<?xml version="1.0" standalone="no"?>
<!DOCTYPE svg PUBLIC "-//W3C//DTD SVG 20010904//EN"
 "http://www.w3.org/TR/2001/REC-SVG-20010904/DTD/svg10.dtd">
<svg version="1.0" xmlns="http://www.w3.org/2000/svg"
 width="56.000000pt" height="56.000000pt" viewBox="0 0 56.000000 56.000000"
 preserveAspectRatio="xMidYMid meet">

<g transform="translate(0.000000,56.000000) scale(0.100000,-0.100000)"
fill="#000000" stroke="none">
<path d="M181 533 c-26 -9 -65 -36 -91 -62 -179 -179 -39 -479 214 -459 137
11 233 107 244 244 16 202 -174 345 -367 277z m137 -160 l38 37 27 -27 27 -27
-37 -38 -37 -38 34 -35 34 -35 -27 -27 -27 -27 -35 34 -35 34 -38 -37 -38 -37
-27 27 -27 27 37 38 37 38 -37 38 -37 38 27 27 27 27 38 -37 38 -37 38 37z"/>
</g>
</svg>
