<svg width="34" height="34" viewBox="0 0 34 34" fill="none" xmlns="http://www.w3.org/2000/svg">
<path d="M26.3929 8.08675C25.0748 8.08675 23.8352 8.61244 22.9032 9.5667L17.8642 14.7279C17.5105 15.0913 16.8938 15.0901 16.5402 14.7279L11.4828 9.54777C10.5507 8.59367 9.3111 8.06798 7.99295 8.06798H7L13.3818 1.53105C15.375 -0.510351 18.6065 -0.510351 20.5997 1.53105L27 8.08675H26.3929Z" fill="#0046B4"/>
<path d="M7.99281 25.9372C9.31097 25.9372 10.5506 25.4116 11.4826 24.458L16.54 19.2802C16.9042 18.9073 17.499 18.9057 17.8642 19.2807L22.9031 24.4392C23.8353 25.3929 25.0749 25.9182 26.3931 25.9182H27L20.5997 32.4698C18.6065 34.5101 15.375 34.5101 13.3818 32.4698L7 25.9372H7.99281Z" fill="#0046B4"/>
<path d="M32.4871 20.8536L28.5729 24.9836C28.4867 24.9472 28.3934 24.9244 28.2949 24.9244H26.5154C25.5952 24.9244 24.6946 24.5308 24.0445 23.8444L18.9448 18.4636C18.4678 17.9601 17.8408 17.708 17.2142 17.708C16.5872 17.708 15.9606 17.9601 15.4834 18.4631L10.3647 23.8639C9.71448 24.5503 8.81399 24.944 7.89384 24.944H5.70555C5.61232 24.944 5.52501 24.9673 5.44265 25L1.51288 20.8536C-0.504294 18.7254 -0.504294 15.2747 1.51288 13.1462L5.44249 9C5.52485 9.03273 5.61232 9.05602 5.70555 9.05602H7.89384C8.81399 9.05602 9.71448 9.44967 10.3647 10.1361L15.483 15.5364C16.4081 16.5117 18.0207 16.5122 18.9448 15.5359L24.0445 10.1558C24.6946 9.46924 25.5952 9.07559 26.5154 9.07559H28.2949C28.3936 9.07559 28.4867 9.05298 28.573 9.01654L32.4871 13.1462C34.5043 15.2747 34.5043 18.7254 32.4871 20.8536" fill="#0046B4"/>
</svg>
