<svg width="19" height="14" viewBox="0 0 19 14" fill="none" xmlns="http://www.w3.org/2000/svg">
<path d="M18.3125 6.75L16.5 5.25V2.25C16.5 2.125 16.375 2 16.25 2H15.25C15.0938 2.03125 15 2.125 15 2.25V4.03125L10.5938 0.40625C10.3125 0.15625 9.90625 0.03125 9.5 0.03125C9.0625 0.03125 8.65625 0.15625 8.375 0.40625L0.65625 6.75C0.5625 6.84375 0.5 6.96875 0.5 7.125C0.5 7.25 0.53125 7.375 0.59375 7.4375L0.9375 7.84375C1 7.9375 1.15625 8 1.3125 8C1.4375 8 1.53125 7.96875 1.625 7.90625L2.5 7.1875V13C2.5 13.5625 2.9375 14 3.5 14H7.5C8.03125 14 8.46875 13.5625 8.5 13V9.75H10.5V13C10.5 13.5625 10.9375 14 11.5 14H15.5C16.0312 14 16.4688 13.5625 16.5 13.0312V7.1875L17.3438 7.90625C17.4375 7.96875 17.5312 8.03125 17.6562 8.03125C17.8125 8.03125 17.9688 7.9375 18.0625 7.84375L18.375 7.4375C18.4375 7.375 18.5 7.25 18.5 7.125C18.5 6.96875 18.4062 6.84375 18.3125 6.75ZM14.9688 12.5H12V9.25C11.9688 8.71875 11.5312 8.28125 11 8.25H8C7.4375 8.28125 7 8.71875 7 9.25V12.5H4V5.96875L9.5 1.4375L15 5.96875L14.9688 12.5Z" fill="#0046B4"/>
</svg>
