<svg width="16" height="12" viewBox="0 0 16 12" fill="none" xmlns="http://www.w3.org/2000/svg">
<path d="M15.3594 11.0391L1.34375 0.0937499C1.27344 0.0468749 1.17969 0.0234374 1.10937 0.0234373C0.96875 0.0234373 0.875 0.0703123 0.804687 0.140625L0.570312 0.445312C0.523437 0.515625 0.476562 0.585937 0.476562 0.679687C0.476562 0.796875 0.546875 0.914062 0.640625 0.960937L14.6562 11.9297C14.7031 11.9766 14.7969 12 14.8672 12C15.0078 12 15.1016 11.9531 15.1719 11.8594L15.4062 11.5781C15.4531 11.5078 15.5 11.4375 15.5 11.3438C15.5 11.2266 15.4297 11.1094 15.3594 11.0391ZM7.4375 3.44531L10.6016 5.90625C10.5547 4.5 9.40625 3.375 8 3.375C7.8125 3.39844 7.625 3.39844 7.4375 3.44531ZM8.53906 8.57813L5.375 6.11719C5.42187 7.52344 6.57031 8.625 8 8.625C8.16406 8.625 8.35156 8.625 8.53906 8.57813ZM8 2.625C10.2969 2.625 12.4297 3.91406 13.5547 6C13.2734 6.53906 12.9453 7.00781 12.5234 7.42969L13.4141 8.10938C13.9062 7.59375 14.3281 7.00781 14.6562 6.35156C14.7031 6.25781 14.75 6.14063 14.75 6.02344C14.75 5.88281 14.7031 5.76563 14.6562 5.67188C13.3906 3.1875 10.8594 1.5 8 1.5C7.13281 1.5 6.3125 1.66406 5.53906 1.94531L6.61719 2.8125C7.0625 2.69531 7.53125 2.625 8 2.625ZM8 9.375C5.67969 9.375 3.54687 8.08594 2.42187 6C2.70312 5.48438 3.03125 5.01563 3.45312 4.59375L2.5625 3.91406C2.07031 4.42969 1.64844 5.01562 1.32031 5.67187C1.27344 5.76562 1.25 5.88281 1.25 6C1.25 6.14062 1.27344 6.25781 1.32031 6.35156C2.58594 8.83594 5.11719 10.5 8 10.5C8.84375 10.5 9.66406 10.3359 10.4375 10.0781L9.35937 9.21094C8.91406 9.32813 8.44531 9.375 8 9.375Z" fill="#646464"/>
</svg>
