<svg width="14" height="13" viewBox="0 0 14 13" fill="none" xmlns="http://www.w3.org/2000/svg">
<path d="M6.92042 0.257548L8.85372 4.08774L12.5747 4.45637C12.6633 4.46373 12.7479 4.49632 12.8185 4.55028C12.8892 4.60424 12.9429 4.67731 12.9733 4.76084C13.0037 4.84437 13.0095 4.93486 12.9901 5.0216C12.9706 5.10834 12.9267 5.18769 12.8636 5.25026L9.8013 8.28541L10.9367 12.4097C10.9599 12.4972 10.9574 12.5895 10.9294 12.6756C10.9014 12.7616 10.8491 12.8378 10.7788 12.8949C10.7086 12.9519 10.6233 12.9875 10.5334 12.9973C10.4434 13.007 10.3525 12.9906 10.2716 12.9499L6.49921 11.0819L2.732 12.9476C2.65114 12.9883 2.56025 13.0047 2.47027 12.9949C2.38028 12.9852 2.29504 12.9496 2.22479 12.8925C2.15454 12.8355 2.10227 12.7593 2.07427 12.6733C2.04627 12.5872 2.04373 12.4949 2.06696 12.4074L3.20232 8.2831L0.137708 5.24795C0.0745739 5.18538 0.030691 5.10602 0.0112551 5.01929C-0.00818079 4.93255 -0.00235568 4.84206 0.0280407 4.75853C0.0584372 4.675 0.112132 4.60193 0.182768 4.54797C0.253403 4.49401 0.338022 4.46142 0.426605 4.45406L4.14759 4.08543L6.078 0.257548C6.1177 0.180008 6.17804 0.114932 6.25236 0.069489C6.32668 0.0240461 6.4121 0 6.49921 0C6.58632 0 6.67175 0.0240461 6.74607 0.069489C6.82039 0.114932 6.88072 0.180008 6.92042 0.257548Z" fill="#FCAF17"/>
</svg>
