<svg width="117" height="88" viewBox="0 0 117 88" fill="none" xmlns="http://www.w3.org/2000/svg">
<path d="M10.9688 0.25H106.031C112.201 0.25 117 5.27734 117 11.2188V77.0312C117 83.2012 112.201 88 106.031 88H10.9688C5.02734 88 0 83.2012 0 77.0312V11.2188C0 5.27734 5.02734 0.25 10.9688 0.25ZM10.9688 11.2188V20.5879C16.2246 24.9297 24.4512 31.3281 41.8184 45.0391C45.7031 48.0098 53.2441 55.3223 58.5 55.0938C63.9844 55.3223 71.5254 48.0098 75.4102 45.0391C92.7773 31.3281 101.004 24.9297 106.031 20.5879V11.2188H10.9688ZM106.031 77.0312V34.7559C101.004 38.8691 93.4629 44.8105 82.2656 53.7227C77.2383 57.6074 68.3262 66.291 58.5 66.0625C48.9023 66.291 40.2188 57.6074 34.9629 53.7227C23.7656 44.8105 16.2246 38.8691 10.9688 34.7559V77.0312H106.031Z" fill="#00378C"/>
</svg>
