<svg width="22" height="22" viewBox="0 0 22 22" fill="none" xmlns="http://www.w3.org/2000/svg">
<path d="M17.0568 5.31681C16.2069 5.31681 15.4075 5.66243 14.8066 6.28983L11.5573 9.68318C11.3292 9.92207 10.9316 9.92133 10.7035 9.68318L7.44241 6.27738C6.84135 5.65009 6.04202 5.30447 5.19204 5.30447H4.55176L8.66693 1.00662C9.95219 -0.335541 12.036 -0.335541 13.3212 1.00662L17.4483 5.31681H17.0568Z" fill="#0046B4"/>
<path d="M5.19195 16.6989C6.04194 16.6989 6.84129 16.3534 7.44225 15.7264L10.7034 12.3221C10.9383 12.077 11.3218 12.076 11.5573 12.3225L14.8065 15.7141C15.4076 16.3411 16.207 16.6865 17.0569 16.6865H17.4483L13.3213 20.9939C12.036 22.3354 9.95217 22.3354 8.6669 20.9939L4.55176 16.6989H5.19195Z" fill="#0046B4"/>
<path d="M21.0211 13.3752L18.4883 15.9208C18.4326 15.8984 18.3722 15.8843 18.3085 15.8843H17.157C16.5616 15.8843 15.9788 15.6417 15.5582 15.2186L12.2584 11.902C11.9497 11.5917 11.544 11.4363 11.1386 11.4363C10.7329 11.4363 10.3275 11.5917 10.0187 11.9017L6.70657 15.2307C6.28584 15.6538 5.70317 15.8964 5.10778 15.8964H3.69183C3.6315 15.8964 3.57501 15.9107 3.52172 15.9309L0.978924 13.3752C-0.326308 12.0634 -0.326308 9.93646 0.978924 8.62448L3.52161 6.06885C3.5749 6.08902 3.6315 6.10338 3.69183 6.10338H5.10778C5.70317 6.10338 6.28584 6.34601 6.70657 6.76909L10.0184 10.0978C10.617 10.6989 11.6604 10.6992 12.2584 10.0975L15.5582 6.78126C15.9788 6.35808 16.5616 6.11544 17.157 6.11544H18.3085C18.3723 6.11544 18.4325 6.1015 18.4884 6.07904L21.0211 8.62448C22.3263 9.93646 22.3263 12.0634 21.0211 13.3752Z" fill="#0046B4"/>
</svg>
