<svg width="27" height="23" viewBox="0 0 27 23" fill="none" xmlns="http://www.w3.org/2000/svg">
<path d="M22.9688 3.04688C20.25 0.75 16.0781 1.07812 13.5 3.75C10.875 1.07812 6.70312 0.75 3.98438 3.04688C0.46875 6 0.984375 10.8281 3.51562 13.4062L11.7188 21.7969C12.1875 22.2656 12.7969 22.5469 13.5 22.5469C14.1562 22.5469 14.7656 22.2656 15.2344 21.7969L23.4844 13.4062C25.9688 10.8281 26.4844 6 22.9688 3.04688ZM21.8438 11.8125L13.6406 20.2031C13.5469 20.2969 13.4531 20.2969 13.3125 20.2031L5.10938 11.8125C3.375 10.0781 3.04688 6.79688 5.4375 4.78125C7.26562 3.23438 10.0781 3.46875 11.8594 5.25L13.5 6.9375L15.1406 5.25C16.875 3.46875 19.6875 3.23438 21.5156 4.73438C23.9062 6.79688 23.5781 10.0781 21.8438 11.8125Z" fill="white"/>
</svg>
