<svg width="31" height="32" viewBox="0 0 31 32" fill="none" xmlns="http://www.w3.org/2000/svg">
<path d="M9.86914 14.8613C9.56641 14.5586 9.08203 14.5586 8.83984 14.8613L7.44727 16.1934C7.14453 16.4961 7.14453 16.9805 7.44727 17.2227L12.957 22.793C13.1992 23.0957 13.6836 23.0957 13.9863 22.793L24.4004 12.4395C24.7031 12.1367 24.7031 11.6523 24.4004 11.4102L23.0684 10.0176C22.7656 9.71484 22.3418 9.71484 22.0391 10.0176L13.502 18.4941L9.86914 14.8613ZM28.2148 5.96094L16.5898 1.11719C16.2266 0.996094 15.8633 0.935547 15.5 0.935547C15.0762 0.935547 14.7129 0.996094 14.3496 1.11719L2.72461 5.96094C1.63477 6.44531 0.96875 7.47461 0.96875 8.625C0.96875 20.6738 7.87109 28.9688 14.3496 31.6934C15.0762 31.9961 15.8633 31.9961 16.5898 31.6934C21.7969 29.5137 30.0312 22.0664 30.0312 8.625C30.0312 7.47461 29.3047 6.44531 28.2148 5.96094ZM15.5 28.9688C9.56641 26.5469 3.875 18.918 3.875 8.625L15.5 3.78125L27.125 8.625C27.125 19.1602 21.1309 26.6074 15.5 28.9688Z" fill="#0046B4"/>
</svg>
