<svg width="12" height="15" viewBox="0 0 12 15" fill="none" xmlns="http://www.w3.org/2000/svg">
<path d="M9.15625 7.96875L7.125 10.0312V0.75C7.125 0.34375 6.78125 0 6.375 0H5.625C5.1875 0 4.875 0.34375 4.875 0.75V10.0312L2.8125 7.96875C2.53125 7.6875 2.03125 7.6875 1.75 7.96875L1.21875 8.5C0.9375 8.78125 0.9375 9.28125 1.21875 9.5625L5.46875 13.7812C5.75 14.0938 6.21875 14.0938 6.5 13.7812L10.75 9.5625C11.0312 9.28125 11.0312 8.78125 10.75 8.5L10.2188 7.96875C9.9375 7.6875 9.4375 7.6875 9.15625 7.96875Z" fill="white"/>
</svg>
