<svg width="17" height="17" viewBox="0 0 17 17" fill="none" xmlns="http://www.w3.org/2000/svg">
<path id="&#240;&#159;&#148;&#185;Icon Color" fill-rule="evenodd" clip-rule="evenodd" d="M12.7788 10.8692C12.6042 10.6969 12.3688 10.6003 12.1235 10.6003H11.8598C11.7905 10.6003 11.7237 10.5737 11.6734 10.526C11.5678 10.426 11.5604 10.2609 11.6514 10.1474C12.6872 8.85522 13.2064 7.14757 12.8979 5.33829C12.449 2.73073 10.2333 0.648438 7.55907 0.329529C3.51914 -0.158215 0.119099 3.18096 0.615734 7.14857C0.940456 9.77488 3.0607 11.951 5.71579 12.3918C7.56022 12.6952 9.30093 12.1837 10.6172 11.164C10.7311 11.0758 10.8938 11.083 10.9947 11.1858C11.0454 11.2374 11.0737 11.3067 11.0737 11.379V11.632C11.0737 11.872 11.1702 12.102 11.3414 12.2702L15.1327 15.9936C15.5243 16.3782 16.1642 16.3782 16.5558 15.9936C16.9474 15.6091 16.9474 14.9806 16.5558 14.596L12.7788 10.8692ZM6.77594 10.6003C4.39782 10.6003 2.47814 8.71499 2.47814 6.37945C2.47814 4.0439 4.39782 2.15859 6.77594 2.15859C9.15405 2.15859 11.0737 4.0439 11.0737 6.37945C11.0737 8.71499 9.15405 10.6003 6.77594 10.6003Z" fill="#656564"/>
</svg>
