<svg width="15" height="19" viewBox="0 0 15 19" fill="none" xmlns="http://www.w3.org/2000/svg">
<path d="M7.62721 0.25C3.90064 0.25 0.877206 3.30859 0.877206 7C0.877206 9.70703 1.75611 10.5156 6.92408 17.9336C7.09986 18.1445 7.34596 18.25 7.62721 18.25C7.8733 18.25 8.11939 18.1445 8.29517 17.9336C13.4631 10.5156 14.3772 9.70703 14.3772 7C14.3772 3.30859 11.3186 0.25 7.62721 0.25ZM7.62721 15.9648C7.09986 15.2266 6.64283 14.5586 6.22096 13.9961C2.91627 9.28516 2.56471 8.72266 2.56471 7C2.56471 4.22266 4.81471 1.9375 7.62721 1.9375C10.4045 1.9375 12.6897 4.22266 12.6897 7C12.6897 8.72266 12.303 9.28516 8.9983 13.9961C8.57642 14.5586 8.11939 15.2266 7.62721 15.9648ZM11.1077 5.66406L10.2991 4.85547C10.1585 4.71484 9.94752 4.71484 9.80689 4.85547L6.7483 7.87891L5.41236 6.54297C5.27174 6.40234 5.0608 6.40234 4.92017 6.54297L4.11158 7.35156C3.97096 7.49219 3.97096 7.73828 4.11158 7.84375L6.50221 10.2695C6.60767 10.4102 6.85377 10.4102 6.99439 10.2695L11.1077 6.15625C11.2483 6.01562 11.2483 5.80469 11.1077 5.66406Z" fill="white"/>
</svg>
