<svg width="18" height="21" viewBox="0 0 18 21" fill="none" xmlns="http://www.w3.org/2000/svg">
<path d="M4 13C5.01562 13 5.91406 13.3906 6.61719 14.0547L10.4453 11.6328C10.2109 10.9297 10.2109 10.1094 10.4453 9.40625L6.61719 6.98438C5.91406 7.60938 5.01562 8 4 8C1.92969 8 0.25 6.32031 0.25 4.25C0.25 2.17969 1.92969 0.5 4 0.5C6.07031 0.5 7.75 2.17969 7.75 4.25C7.75 4.64062 7.71094 5.03125 7.59375 5.38281L11.4219 7.80469C12.125 7.14062 13.0234 6.75 14 6.75C16.0703 6.75 17.75 8.42969 17.75 10.5C17.75 12.5703 16.0703 14.25 14 14.25C13.0234 14.25 12.125 13.8594 11.4219 13.2344L7.59375 15.6562C7.71094 16.0078 7.75 16.3984 7.75 16.75C7.75 18.8203 6.07031 20.5 4 20.5C1.92969 20.5 0.25 18.8203 0.25 16.75C0.25 14.6797 1.92969 13 4 13ZM4 2.375C2.98438 2.375 2.125 3.23438 2.125 4.25C2.125 5.30469 2.98438 6.125 4 6.125C5.05469 6.125 5.875 5.30469 5.875 4.25C5.875 3.23438 5.05469 2.375 4 2.375ZM14 12.375C15.0547 12.375 15.875 11.5547 15.875 10.5C15.875 9.48438 15.0547 8.625 14 8.625C12.9844 8.625 12.125 9.48438 12.125 10.5C12.125 11.5547 12.9844 12.375 14 12.375ZM4 18.625C5.05469 18.625 5.875 17.8047 5.875 16.75C5.875 15.7344 5.05469 14.875 4 14.875C2.98438 14.875 2.125 15.7344 2.125 16.75C2.125 17.8047 2.98438 18.625 4 18.625Z" fill="#CBD5E0"/>
</svg>
