<svg width="19" height="17" viewBox="0 0 19 17" fill="none" xmlns="http://www.w3.org/2000/svg">
<path d="M13.0625 11.7813C13 11.8438 13 11.9063 13 11.9688L13 15.5L2 15.5L2 4.5L9.53125 4.5C9.59375 4.5 9.65625 4.5 9.71875 4.4375L10.7188 3.4375C10.875 3.28125 10.75 3 10.5313 3L2 3C1.15625 3 0.5 3.6875 0.5 4.5L0.499998 15.5C0.499998 16.3438 1.15625 17 2 17L13 17C13.8125 17 14.5 16.3438 14.5 15.5L14.5 10.9688C14.5 10.75 14.2187 10.625 14.0625 10.7813L13.0625 11.7813ZM17.9375 5.5C18.6563 4.78125 18.6563 3.625 17.9375 2.90625L16.5938 1.5625C15.875 0.843754 14.7188 0.843754 14 1.5625L5.8125 9.75L5.5 12.5938C5.40625 13.4063 6.09375 14.0938 6.90625 14L9.75 13.6875L17.9375 5.5ZM14.875 6.4375L9.0625 12.25L7 12.5L7.25 10.4375L13.0625 4.625L14.875 6.4375ZM16.875 3.96875C17.0313 4.09375 17.0313 4.28125 16.9063 4.4375L15.9375 5.40625L14.125 3.5625L15.0625 2.625C15.1875 2.46875 15.4063 2.46875 15.5313 2.625L16.875 3.96875Z" fill="black" fill-opacity="0.8"/>
</svg>
