<svg width="24" height="24" viewBox="0 0 24 24" fill="none" xmlns="http://www.w3.org/2000/svg">
<path d="M14.2439 11.4375L10.8689 10.4531C10.4471 10.3125 10.1189 9.84375 10.1189 9.375C10.1189 8.76562 10.5877 8.25 11.1033 8.25H13.2127C13.5408 8.25 13.8689 8.34375 14.1502 8.53125C14.4314 8.71875 14.8064 8.67188 15.0408 8.4375L15.6033 7.92188C15.9783 7.59375 15.9314 7.03125 15.5096 6.75C14.8533 6.28125 14.1033 6.04688 13.3533 6.04688V5.25C13.3533 4.875 13.0252 4.5 12.6033 4.5H11.8533C11.4314 4.5 11.1033 4.875 11.1033 5.25V6C9.32207 6.04688 7.91582 7.54688 7.91582 9.375C7.91582 10.8281 8.85332 12.1875 10.2127 12.5625L13.5877 13.5938C14.0096 13.7344 14.2908 14.1562 14.2908 14.6719C14.2908 15.2812 13.8689 15.75 13.3064 15.75H11.1971C10.8689 15.75 10.5877 15.7031 10.3064 15.5156C9.97832 15.3281 9.60332 15.375 9.36895 15.6094L8.80645 16.125C8.43145 16.4531 8.5252 17.0156 8.9002 17.2969C9.55645 17.7188 10.3064 18 11.1033 18V18.75C11.1033 19.1719 11.4314 19.5 11.8533 19.5H12.6033C12.9783 19.5 13.3533 19.1719 13.3533 18.75V18C15.0877 18 16.5408 16.5 16.5408 14.6719C16.5408 13.2188 15.6033 11.8594 14.2439 11.4375ZM12.2283 0.375C5.80645 0.375 0.603325 5.57812 0.603325 12C0.603325 18.4219 5.80645 23.625 12.2283 23.625C18.6502 23.625 23.8533 18.4219 23.8533 12C23.8533 5.57812 18.6502 0.375 12.2283 0.375ZM12.2283 21.375C7.0252 21.375 2.85332 17.2031 2.85332 12C2.85332 6.84375 7.0252 2.625 12.2283 2.625C17.3846 2.625 21.6033 6.84375 21.6033 12C21.6033 17.2031 17.3846 21.375 12.2283 21.375Z" fill="#0046B4"/>
</svg>
