<svg width="14" height="10" viewBox="0 0 14 10" fill="none" xmlns="http://www.w3.org/2000/svg">
<path d="M7 2.375C6.74219 2.39844 6.48437 2.42188 6.25 2.49219C6.36719 2.67969 6.41406 2.91406 6.4375 3.125C6.4375 3.85156 5.82812 4.4375 5.125 4.4375C4.89062 4.4375 4.65625 4.39063 4.49219 4.27344C4.42187 4.50781 4.375 4.74219 4.375 5C4.375 6.45313 5.54687 7.625 7 7.625C8.45312 7.625 9.625 6.45313 9.625 5C9.625 3.57031 8.45312 2.39844 7 2.39844L7 2.375ZM13.6562 4.67188C12.3906 2.1875 9.85937 0.500002 7 0.500001C4.11719 0.500001 1.58594 2.1875 0.320311 4.67187C0.273436 4.76562 0.249999 4.88281 0.249999 5C0.249999 5.14062 0.273436 5.25781 0.320311 5.35156C1.58594 7.83594 4.11719 9.5 7 9.5C9.85937 9.5 12.3906 7.83594 13.6562 5.35156C13.7031 5.25781 13.7266 5.14063 13.7266 5.02344C13.7266 4.88281 13.7031 4.76563 13.6562 4.67188ZM7 8.375C4.67969 8.375 2.54687 7.08594 1.42187 5C2.54687 2.91406 4.67969 1.625 7 1.625C9.29687 1.625 11.4297 2.91406 12.5547 5C11.4297 7.08594 9.29687 8.375 7 8.375Z" fill="#646464"/>
</svg>
