<svg width="14" height="16" viewBox="0 0 14 16" fill="none" xmlns="http://www.w3.org/2000/svg">
<path d="M9.25 13.5L9.75 13.5C9.875 13.5 10 13.4063 10 13.25L10 4.75C10 4.625 9.875 4.5 9.75 4.5L9.25 4.5C9.09375 4.5 9 4.625 9 4.75L9 13.25C9 13.4063 9.09375 13.5 9.25 13.5ZM4.25 13.5L4.75 13.5C4.875 13.5 5 13.4063 5 13.25L5 4.75C5 4.625 4.875 4.5 4.75 4.5L4.25 4.5C4.09375 4.5 4 4.625 4 4.75L4 13.25C4 13.4063 4.09375 13.5 4.25 13.5ZM13.75 2L10.5 2L9.4375 0.625002C9.15625 0.250002 8.71875 1.87413e-06 8.25 1.79217e-06L5.75 1.35505e-06C5.25 1.26763e-06 4.8125 0.250001 4.53125 0.625001L3.5 2L0.250002 2C0.0937516 2 1.5358e-06 2.125 1.51395e-06 2.25L1.42652e-06 2.75C1.3992e-06 2.90625 0.0937514 3 0.250001 3L1 3L0.999999 14.5C0.999999 15.3438 1.65625 16 2.5 16L11.5 16C12.3125 16 13 15.3438 13 14.5L13 3L13.75 3C13.875 3 14 2.90625 14 2.75L14 2.25C14 2.125 13.875 2 13.75 2ZM5.34375 1.21875C5.4375 1.09375 5.5625 1.03125 5.75 1L8.25 1C8.40625 1.03125 8.53125 1.09375 8.625 1.21875L9.25 2L4.75 2L5.34375 1.21875ZM12 14.5C12 14.7813 11.75 15 11.5 15L2.5 15C2.21875 15 2 14.7813 2 14.5L2 3L12 3L12 14.5ZM6.75 13.5L7.25 13.5C7.375 13.5 7.5 13.4063 7.5 13.25L7.5 4.75C7.5 4.625 7.375 4.5 7.25 4.5L6.75 4.5C6.59375 4.5 6.5 4.625 6.5 4.75L6.5 13.25C6.5 13.4063 6.59375 13.5 6.75 13.5Z" fill="black" fill-opacity="0.8"/>
</svg>
