<svg width="24" height="24" viewBox="0 0 24 24" fill="none" xmlns="http://www.w3.org/2000/svg">
<path d="M11.9281 0.375C5.50621 0.375 0.303085 5.625 0.303085 12C0.303085 18.4219 5.50621 23.625 11.9281 23.625C18.3031 23.625 23.5531 18.4219 23.5531 12C23.5531 5.625 18.3031 0.375 11.9281 0.375ZM11.9281 2.625C17.0843 2.625 21.3031 6.84375 21.3031 12C21.3031 17.2031 17.0843 21.375 11.9281 21.375C6.72496 21.375 2.55309 17.2031 2.55309 12C2.55309 6.84375 6.72496 2.625 11.9281 2.625ZM18.4906 8.76562L17.4125 7.6875C17.225 7.45312 16.85 7.45312 16.6156 7.6875L10.0062 14.25L7.19371 11.4375C6.95934 11.2031 6.63121 11.2031 6.39684 11.4375L5.31871 12.4688C5.13121 12.7031 5.13121 13.0781 5.31871 13.2656L9.58434 17.5781C9.81871 17.8125 10.1468 17.8125 10.3812 17.5781L18.4906 9.5625C18.6781 9.32812 18.6781 8.95312 18.4906 8.76562Z" fill="#0046B4"/>
</svg>
