<svg width="21" height="17" viewBox="0 0 21 17" fill="none" xmlns="http://www.w3.org/2000/svg">
<path d="M18.92 0.375H2.08015C1.13093 0.375 0.392647 1.14844 0.392647 2.0625V14.4375C0.392647 15.3867 1.13093 16.125 2.08015 16.125H18.92C19.8692 16.125 20.6426 15.3867 20.6426 14.4375V2.0625C20.6426 1.14844 19.8692 0.375 18.92 0.375ZM2.29108 2.0625H18.7091C18.8497 2.0625 18.92 2.16797 18.92 2.27344V3.75H2.08015V2.27344C2.08015 2.16797 2.15046 2.0625 2.29108 2.0625ZM18.7091 14.4375H2.29108C2.15046 14.4375 2.08015 14.3672 2.08015 14.2266V8.25H18.92V14.2266C18.92 14.3672 18.8497 14.4375 18.7091 14.4375ZM7.14265 10.9219C7.14265 10.7109 6.93171 10.5 6.72077 10.5H4.18952C3.94343 10.5 3.76765 10.7109 3.76765 10.9219V12.3281C3.76765 12.5742 3.94343 12.75 4.18952 12.75H6.72077C6.93171 12.75 7.14265 12.5742 7.14265 12.3281V10.9219ZM13.8926 10.9219C13.8926 10.7109 13.6817 10.5 13.4708 10.5H8.68952C8.44343 10.5 8.26765 10.7109 8.26765 10.9219V12.3281C8.26765 12.5742 8.44343 12.75 8.68952 12.75H13.4708C13.6817 12.75 13.8926 12.5742 13.8926 12.3281V10.9219Z" fill="#0046B4"/>
</svg>
