<svg width="11" height="19" viewBox="0 0 11 19" fill="none" xmlns="http://www.w3.org/2000/svg">
<path d="M9.50262 12.4844C9.32684 12.3086 9.04559 12.3086 8.90497 12.4844L6.44403 15.0508V3.48438L8.90497 6.05078C9.04559 6.22656 9.32684 6.22656 9.50262 6.05078L10.1706 5.34766C10.3464 5.20703 10.3464 4.92578 10.1706 4.75L5.81122 0.390625C5.63544 0.214844 5.38934 0.214844 5.21356 0.390625L0.854187 4.75C0.678406 4.92578 0.678406 5.20703 0.854187 5.34766L1.52216 6.05078C1.69794 6.22656 1.97919 6.22656 2.11981 6.05078L4.58075 3.48438V15.0508L2.11981 12.4844C1.97919 12.3086 1.69794 12.3086 1.52216 12.4844L0.854187 13.1523C0.678406 13.3281 0.678406 13.6094 0.854187 13.75L5.21356 18.1445C5.38934 18.3203 5.63544 18.3203 5.81122 18.1445L10.1706 13.75C10.3464 13.6094 10.3464 13.3281 10.1706 13.1523L9.50262 12.4844Z" fill="#0046B4"/>
</svg>
