<svg width="24" height="19" viewBox="0 0 24 19" fill="none" xmlns="http://www.w3.org/2000/svg">
<path d="M23.2952 6.47266L20.096 0.847656C19.885 0.496094 19.5335 0.25 19.1116 0.25H5.29517C4.90846 0.25 4.52174 0.496094 4.3108 0.847656L1.11158 6.47266C0.689706 7.21094 1.21705 8.125 2.09596 8.125H3.22096V17.0195C3.22096 17.7227 3.71314 18.25 4.34596 18.25H13.346C13.9436 18.25 14.471 17.7227 14.471 17.0195V8.125H19.5335V17.6875C19.5335 18.0039 19.7795 18.25 20.096 18.25H20.6585C20.9397 18.25 21.221 18.0039 21.221 17.6875V8.125H22.346C23.1897 8.125 23.717 7.21094 23.2952 6.47266ZM12.7835 16.5625H4.90846V13.2227H12.7835V16.5625ZM12.7835 11.5352H4.90846V8.125H12.7835V11.5352ZM3.04517 6.4375L5.61158 1.9375H18.7952L21.3616 6.4375H3.04517Z" fill="#0046B4"/>
</svg>
