<svg width="144" height="125" viewBox="0 0 144 125" fill="none" xmlns="http://www.w3.org/2000/svg">
<path d="M62.2894 51.0977L63.9574 77.7852C63.9574 79.4531 65.1488 80.4062 66.8168 80.4062H76.5863C78.2543 80.4062 79.4457 79.2148 79.4457 77.7852L81.1136 51.0977C81.1136 49.4297 79.9222 48 78.2543 48H65.1488C63.4808 48 62.2894 49.4297 62.2894 51.0977ZM81.8285 93.75C81.8285 88.2695 77.3011 83.7422 71.8207 83.7422C66.1019 83.7422 61.8129 88.2695 61.8129 93.75C61.8129 99.4688 66.1019 103.758 71.8207 103.758C77.3011 103.758 81.8285 99.4688 81.8285 93.75ZM81.5902 7.96875C77.3011 0.582031 66.1019 0.34375 61.8129 7.96875L4.62535 107.332C0.336288 114.719 5.81676 124.25 14.6332 124.25H128.77C137.586 124.25 143.067 114.957 138.778 107.332L81.5902 7.96875ZM15.8246 110.906L70.391 16.0703C71.1058 15.1172 72.2972 15.1172 73.0121 16.0703L127.578 110.906C128.293 111.859 127.578 112.812 126.387 112.812H17.016C15.8246 112.812 15.1097 111.859 15.8246 110.906Z" fill="#E53E3E"/>
</svg>
