<svg width="13" height="11" viewBox="0 0 13 11" fill="none" xmlns="http://www.w3.org/2000/svg">
<path d="M12.6875 7.125H12.375V5.01562C12.375 4.78125 12.2578 4.52734 12.082 4.35156L10.1484 2.41797C9.97266 2.24219 9.71875 2.125 9.48438 2.125H8.625V1.1875C8.625 0.679688 8.19531 0.25 7.6875 0.25H1.4375C0.910156 0.25 0.5 0.679688 0.5 1.1875V7.4375C0.5 7.96484 0.910156 8.375 1.4375 8.375H1.75C1.75 9.41016 2.58984 10.25 3.625 10.25C4.66016 10.25 5.5 9.41016 5.5 8.375H8C8 9.41016 8.83984 10.25 9.875 10.25C10.9102 10.25 11.75 9.41016 11.75 8.375H12.6875C12.8438 8.375 13 8.23828 13 8.0625V7.4375C13 7.28125 12.8438 7.125 12.6875 7.125ZM3.625 9.3125C3.09766 9.3125 2.6875 8.90234 2.6875 8.375C2.6875 7.86719 3.09766 7.4375 3.625 7.4375C4.13281 7.4375 4.5625 7.86719 4.5625 8.375C4.5625 8.90234 4.13281 9.3125 3.625 9.3125ZM9.875 9.3125C9.34766 9.3125 8.9375 8.90234 8.9375 8.375C8.9375 7.86719 9.34766 7.4375 9.875 7.4375C10.3828 7.4375 10.8125 7.86719 10.8125 8.375C10.8125 8.90234 10.3828 9.3125 9.875 9.3125ZM11.4375 5.25H8.625V3.0625H9.48438L11.4375 5.01562V5.25Z" fill="white"/>
</svg>
