<svg width="119" height="119" viewBox="0 0 119 119" fill="none" xmlns="http://www.w3.org/2000/svg">
<path d="M59.8207 0.15625C27.1761 0.15625 0.726913 26.8438 0.726913 59.25C0.726913 91.8945 27.1761 118.344 59.8207 118.344C92.2269 118.344 118.914 91.8945 118.914 59.25C118.914 26.8438 92.2269 0.15625 59.8207 0.15625ZM59.8207 11.5938C86.0316 11.5938 107.477 33.0391 107.477 59.25C107.477 85.6992 86.0316 106.906 59.8207 106.906C33.3714 106.906 12.1644 85.6992 12.1644 59.25C12.1644 33.0391 33.3714 11.5938 59.8207 11.5938ZM93.18 42.8086L87.6996 37.3281C86.7464 36.1367 84.8402 36.1367 83.6488 37.3281L50.0511 70.6875L35.7543 56.3906C34.5629 55.1992 32.8949 55.1992 31.7035 56.3906L26.223 61.6328C25.2699 62.8242 25.2699 64.7305 26.223 65.6836L47.9066 87.6055C49.098 88.7969 50.766 88.7969 51.9574 87.6055L93.18 46.8594C94.1332 45.668 94.1332 43.7617 93.18 42.8086Z" fill="#00A541"/>
</svg>
