<svg width="31" height="24" viewBox="0 0 31 24" fill="none" xmlns="http://www.w3.org/2000/svg">
<path d="M30.0326 17.25H29.2826V11.8125C29.2826 10.9219 28.9076 10.0781 28.2513 9.42188L24.3607 5.53125C23.7045 4.875 22.8607 4.5 21.9701 4.5H20.2826V2.625C20.2826 1.21875 19.0638 0 17.6576 0H3.4076C1.95447 0 0.782597 1.21875 0.782597 2.625V16.875C0.782597 18.3281 1.95447 19.5 3.4076 19.5H3.7826C3.7826 21.9844 5.79822 24 8.2826 24C10.767 24 12.7826 21.9844 12.7826 19.5H18.7826C18.7826 21.9844 20.7982 24 23.2826 24C25.767 24 27.7826 21.9844 27.7826 19.5H30.0326C30.4076 19.5 30.7826 19.1719 30.7826 18.75V18C30.7826 17.625 30.4076 17.25 30.0326 17.25ZM8.2826 21.75C7.01697 21.75 6.0326 20.7656 6.0326 19.5C6.0326 18.2812 7.01697 17.25 8.2826 17.25C9.50135 17.25 10.5326 18.2812 10.5326 19.5C10.5326 20.7656 9.50135 21.75 8.2826 21.75ZM18.0326 17.25H12.1263C11.3763 15.9375 9.92322 15 8.2826 15C6.5951 15 5.14197 15.9375 4.39197 17.25H3.4076C3.17322 17.25 3.0326 17.1094 3.0326 16.875V2.625C3.0326 2.4375 3.17322 2.25 3.4076 2.25H17.6576C17.8451 2.25 18.0326 2.4375 18.0326 2.625V17.25ZM20.2826 6.75H21.9701C22.2513 6.75 22.5326 6.89062 22.767 7.07812L26.1888 10.5H20.2826V6.75ZM23.2826 21.75C22.017 21.75 21.0326 20.7656 21.0326 19.5C21.0326 18.2812 22.017 17.25 23.2826 17.25C24.5013 17.25 25.5326 18.2812 25.5326 19.5C25.5326 20.7656 24.5013 21.75 23.2826 21.75ZM27.0326 17.0625C26.1888 15.8438 24.8295 15 23.2826 15C22.1107 15 21.0795 15.4688 20.2826 16.1719V12.75H27.0326V17.0625Z" fill="#0046B4"/>
</svg>
