<svg width="25" height="20" viewBox="0 0 25 20" fill="none" xmlns="http://www.w3.org/2000/svg">
<path d="M4.67809 0.25H1.67809C1.25621 0.25 0.928085 0.625 0.928085 1V4C0.928085 4.42188 1.25621 4.75 1.67809 4.75H4.67809C5.05309 4.75 5.42809 4.42188 5.42809 4V1C5.42809 0.625 5.05309 0.25 4.67809 0.25ZM4.67809 7.75H1.67809C1.25621 7.75 0.928085 8.125 0.928085 8.5V11.5C0.928085 11.9219 1.25621 12.25 1.67809 12.25H4.67809C5.05309 12.25 5.42809 11.9219 5.42809 11.5V8.5C5.42809 8.125 5.05309 7.75 4.67809 7.75ZM4.67809 15.25H1.67809C1.25621 15.25 0.928085 15.625 0.928085 16V19C0.928085 19.4219 1.25621 19.75 1.67809 19.75H4.67809C5.05309 19.75 5.42809 19.4219 5.42809 19V16C5.42809 15.625 5.05309 15.25 4.67809 15.25ZM24.1781 8.875H9.17809C8.75621 8.875 8.42809 9.25 8.42809 9.625V10.375C8.42809 10.7969 8.75621 11.125 9.17809 11.125H24.1781C24.5531 11.125 24.9281 10.7969 24.9281 10.375V9.625C24.9281 9.25 24.5531 8.875 24.1781 8.875ZM24.1781 16.375H9.17809C8.75621 16.375 8.42809 16.75 8.42809 17.125V17.875C8.42809 18.2969 8.75621 18.625 9.17809 18.625H24.1781C24.5531 18.625 24.9281 18.2969 24.9281 17.875V17.125C24.9281 16.75 24.5531 16.375 24.1781 16.375ZM24.1781 1.375H9.17809C8.75621 1.375 8.42809 1.75 8.42809 2.125V2.875C8.42809 3.29688 8.75621 3.625 9.17809 3.625H24.1781C24.5531 3.625 24.9281 3.29688 24.9281 2.875V2.125C24.9281 1.75 24.5531 1.375 24.1781 1.375Z" fill="#0046B4"/>
</svg>
