<svg width="13" height="8" viewBox="0 0 13 8" fill="none" xmlns="http://www.w3.org/2000/svg">
<path fill-rule="evenodd" clip-rule="evenodd" d="M6.60548 6.9932L12.0588 1.54816C12.1851 1.42222 12.2546 1.2541 12.2546 1.07484C12.2546 0.895588 12.1851 0.727475 12.0588 0.601537L11.6573 0.200544C11.3957 -0.0603766 10.9705 -0.0603766 10.7092 0.200544L6.12985 4.77288L1.54536 0.195474C1.41913 0.0695357 1.25086 0 1.07142 0C0.891788 0 0.723513 0.0695357 0.597183 0.195474L0.195772 0.59646C0.0695418 0.7225 0 0.890518 0 1.06977C0 1.24903 0.0695418 1.41714 0.195772 1.54309L5.65411 6.9932C5.78074 7.11944 5.94981 7.18877 6.12955 7.18837C6.30998 7.18876 6.47895 7.11944 6.60548 6.9932Z" fill="#0046B4"/>
</svg>
