<svg width="37" height="28" viewBox="0 0 37 28" fill="none" xmlns="http://www.w3.org/2000/svg">
<path d="M36.125 13.5L32.5 10.5L32.5 4.5C32.5 4.25 32.25 4 32 4L30 4C29.6875 4.0625 29.5 4.25 29.5 4.5L29.5 8.0625L20.6875 0.812503C20.125 0.312503 19.3125 0.0625027 18.5 0.0625025C17.625 0.0625024 16.8125 0.312502 16.25 0.812502L0.8125 13.5C0.625 13.6875 0.5 13.9375 0.5 14.25C0.5 14.5 0.5625 14.75 0.6875 14.875L1.375 15.6875C1.5 15.875 1.8125 16 2.125 16C2.375 16 2.5625 15.9375 2.75 15.8125L4.5 14.375L4.5 26C4.5 27.125 5.375 28 6.5 28L14.5 28C15.5625 28 16.4375 27.125 16.5 26L16.5 19.5L20.5 19.5L20.5 26C20.5 27.125 21.375 28 22.5 28L30.5 28C31.5625 28 32.4375 27.125 32.5 26.0625L32.5 14.375L34.1875 15.8125C34.375 15.9375 34.5625 16.0625 34.8125 16.0625C35.125 16.0625 35.4375 15.875 35.625 15.6875L36.25 14.875C36.375 14.75 36.5 14.5 36.5 14.25C36.5 13.9375 36.3125 13.6875 36.125 13.5ZM29.4375 25L23.5 25L23.5 18.5C23.4375 17.4375 22.5625 16.5625 21.5 16.5L15.5 16.5C14.375 16.5625 13.5 17.4375 13.5 18.5L13.5 25L7.5 25L7.5 11.9375L18.5 2.875L29.5 11.9375L29.4375 25Z" fill="#969696"/>
</svg>
