<svg width="23" height="19" viewBox="0 0 23 19" fill="none" xmlns="http://www.w3.org/2000/svg">
<path d="M12.9239 13.75H14.6114C14.752 13.75 14.8926 13.6445 14.8926 13.4688V5.03125C14.8926 4.89062 14.752 4.75 14.6114 4.75H12.9239C12.7481 4.75 12.6426 4.89062 12.6426 5.03125V13.4688C12.6426 13.6445 12.7481 13.75 12.9239 13.75ZM16.2989 13.75H17.9864C18.127 13.75 18.2676 13.6445 18.2676 13.4688V5.03125C18.2676 4.89062 18.127 4.75 17.9864 4.75H16.2989C16.1231 4.75 16.0176 4.89062 16.0176 5.03125V13.4688C16.0176 13.6445 16.1231 13.75 16.2989 13.75ZM10.6739 13.75H11.2364C11.377 13.75 11.5176 13.6445 11.5176 13.4688V5.03125C11.5176 4.89062 11.377 4.75 11.2364 4.75H10.6739C10.4981 4.75 10.3926 4.89062 10.3926 5.03125V13.4688C10.3926 13.6445 10.4981 13.75 10.6739 13.75ZM21.0801 0.25H1.95515C1.00593 0.25 0.267647 1.02344 0.267647 1.9375V16.5625C0.267647 17.5117 1.00593 18.25 1.95515 18.25H21.0801C21.9942 18.25 22.7676 17.5117 22.7676 16.5625V1.9375C22.7676 1.02344 21.9942 0.25 21.0801 0.25ZM21.0801 16.5625H1.95515V1.9375H21.0801V16.5625ZM5.0489 13.75H6.7364C6.87702 13.75 7.01765 13.6445 7.01765 13.4688V5.03125C7.01765 4.89062 6.87702 4.75 6.7364 4.75H5.0489C4.87312 4.75 4.76765 4.89062 4.76765 5.03125V13.4688C4.76765 13.6445 4.87312 13.75 5.0489 13.75ZM8.4239 13.75H8.9864C9.12702 13.75 9.26765 13.6445 9.26765 13.4688V5.03125C9.26765 4.89062 9.12702 4.75 8.9864 4.75H8.4239C8.24812 4.75 8.14265 4.89062 8.14265 5.03125V13.4688C8.14265 13.6445 8.24812 13.75 8.4239 13.75Z" fill="#0046B4"/>
</svg>
