<svg width="15" height="14" viewBox="0 0 15 14" fill="none" xmlns="http://www.w3.org/2000/svg">
<path d="M13.6875 6.125H8.625V1.0625C8.625 0.78125 8.34375 0.5 8.0625 0.5H6.9375C6.62109 0.5 6.375 0.78125 6.375 1.0625V6.125H1.3125C0.996094 6.125 0.75 6.40625 0.75 6.6875V7.8125C0.75 8.12891 0.996094 8.375 1.3125 8.375H6.375V13.4375C6.375 13.7539 6.62109 14 6.9375 14H8.0625C8.34375 14 8.625 13.7539 8.625 13.4375V8.375H13.6875C13.9688 8.375 14.25 8.12891 14.25 7.8125V6.6875C14.25 6.40625 13.9688 6.125 13.6875 6.125Z" fill="#00CDA5"/>
</svg>
