<svg width="17" height="19" viewBox="0 0 17 19" fill="none" xmlns="http://www.w3.org/2000/svg">
<path d="M15.8125 3.0625H12.8945L11.6992 1.09375C11.418 0.601562 10.8555 0.25 10.2578 0.25H6.70703C6.10938 0.25 5.54688 0.601562 5.26562 1.09375L4.07031 3.0625H1.1875C0.871094 3.0625 0.625 3.34375 0.625 3.625V4.1875C0.625 4.50391 0.871094 4.75 1.1875 4.75H1.75L2.48828 16.668C2.52344 17.582 3.26172 18.25 4.17578 18.25H12.7891C13.7031 18.25 14.4414 17.582 14.4766 16.668L15.25 4.75H15.8125C16.0938 4.75 16.375 4.50391 16.375 4.1875V3.625C16.375 3.34375 16.0938 3.0625 15.8125 3.0625ZM6.70703 1.9375H10.2578L10.9258 3.0625H6.03906L6.70703 1.9375ZM12.7891 16.5625H4.17578L3.4375 4.75H13.5273L12.7891 16.5625Z" fill="#00CDA5"/>
</svg>
